<svg width="366" height="372" viewBox="0 0 366 372" fill="none" xmlns="http://www.w3.org/2000/svg">
<rect y="3" width="366" height="366" fill="#133C55"/>
<path d="M101.384 179.2C101.384 145.6 110.312 119.68 128.168 101.44C146.216 83.2 172.52 74.08 207.08 74.08C216.296 74.08 226.28 75.232 237.032 77.536C247.784 79.648 256.52 82.24 263.24 85.312V138.592H247.112L234.44 97.984C227.912 96.832 222.44 96.256 218.024 96.256C194.024 96.256 176.552 102.976 165.608 116.416C154.664 129.664 149.192 150.592 149.192 179.2C149.192 207.616 154.376 228.544 164.744 241.984C175.112 255.424 191.24 262.144 213.128 262.144C217.736 262.144 223.112 261.664 229.256 260.704L250.568 217.216H266.696L259.208 270.208C252.488 273.856 243.848 277.12 233.288 280C222.92 282.88 212.552 284.32 202.184 284.32C169.928 284.32 145.064 275.2 127.592 256.96C110.12 238.528 101.384 212.608 101.384 179.2Z" fill="#91E5F6"/>
</svg>
